# xmcd
#
# Track frame offsets:
# 183
# 22360
# 37940
# 60868
# 83338
# 104388
# 122118
#
# Disc length: 2437 seconds
#
#
# Revision: 10
# Processed by: cddbd v1.5.2PL0 Copyright (c) Steve Scherf et al.
# Submitted via: FreeRIP 2.951 
#
DISCID=4c098307
DTITLE=Scorpions - Lonesome Crow
DYEAR=1972
DGENRE=Hard Rock
TTITLE0=I'm Goin' Mad
TTITLE1=It All Depends
TTITLE2=Leave Me
TTITLE3=In Search Of The Peace Of Mind
TTITLE4=Inheritance
TTITLE5=Action
TTITLE6=Lonesome Crow
EXTD=YEAR: 1972
EXTT0=
EXTT1=
EXTT2=
EXTT3=
EXTT4=
EXTT5=
EXTT6=
PLAYORDER=
